<svg width="53" height="70" viewBox="0 0 53 70" fill="none" xmlns="http://www.w3.org/2000/svg">
<rect x="1.0235" width="51.1714" height="69.1395" rx="5" fill="#F5F7F2"/>
<g clip-path="url(#clip0_1_34)">
<path d="M51.9018 5.1185V64.0212C51.9041 64.4673 51.833 64.9113 51.6909 65.3395C51.3639 66.3581 50.6672 67.255 49.7068 67.8936C48.7464 68.5321 47.575 68.8775 46.3706 68.877H5.82415C5.05751 68.8768 4.29929 68.7365 3.59762 68.4651L2.97067 68.1767C2.8301 68.1038 2.69505 68.023 2.56637 67.9347C2.3569 67.8003 2.16088 67.6504 1.98044 67.4867C1.84654 67.3776 1.72124 67.2606 1.60544 67.1366C1.38809 66.9198 1.19207 66.6873 1.01951 66.4414C0.896088 66.252 0.786495 66.056 0.691385 65.8544C0.48181 65.4058 0.351418 64.9318 0.304686 64.4486C0.295924 64.3046 0.295924 64.1602 0.304686 64.0161V5.1185C0.304686 3.8293 0.887424 2.5929 1.92472 1.6813C2.96202 0.769699 4.36892 0.257568 5.83588 0.257568H46.3823C47.8473 0.260296 49.2511 0.773632 50.2859 1.68494C51.3207 2.59624 51.9018 3.83108 51.9018 5.1185Z" stroke="#3D4C43" stroke-miterlimit="10"/>
<path d="M0.638664 38.8205V3.42432" stroke="#3D4C43" stroke-miterlimit="10"/>
<path d="M1.89842 19.6342V1.69922" stroke="#3D4C43" stroke-miterlimit="10"/>
<path d="M3.15231 19.9277V0.86499" stroke="#3D4C43" stroke-miterlimit="10"/>
<path d="M4.41207 20.242V0.257568" stroke="#3D4C43" stroke-miterlimit="10"/>
<path d="M5.67182 20.5767V0.257568" stroke="#3D4C43" stroke-miterlimit="10"/>
<path d="M6.93157 20.9268V0.257568" stroke="#3D4C43" stroke-miterlimit="10"/>
<path d="M8.19133 21.3027V0.257568" stroke="#3D4C43" stroke-miterlimit="10"/>
<path d="M9.45108 21.6941V0.257568" stroke="#3D4C43" stroke-miterlimit="10"/>
<path d="M10.705 22.1112V0.257568" stroke="#3D4C43" stroke-miterlimit="10"/>
<path d="M11.9647 22.554V0.257568" stroke="#3D4C43" stroke-miterlimit="10"/>
<path d="M13.2245 23.0226V0.257568" stroke="#3D4C43" stroke-miterlimit="10"/>
<path d="M14.4842 23.5118V0.257568" stroke="#3D4C43" stroke-miterlimit="10"/>
<path d="M15.744 24.0318V0.257568" stroke="#3D4C43" stroke-miterlimit="10"/>
<path d="M17.0037 24.588V0.257568" stroke="#3D4C43" stroke-miterlimit="10"/>
<path d="M18.2635 25.1647V0.257568" stroke="#3D4C43" stroke-miterlimit="10"/>
<path d="M19.5174 25.7775V0.257568" stroke="#3D4C43" stroke-miterlimit="10"/>
<path d="M20.7771 26.4263V0.257568" stroke="#3D4C43" stroke-miterlimit="10"/>
<path d="M22.0369 27.1111V0.257568" stroke="#3D4C43" stroke-miterlimit="10"/>
<path d="M23.2966 27.8372V0.257568" stroke="#3D4C43" stroke-miterlimit="10"/>
<path d="M24.5564 28.6044V0.257568" stroke="#3D4C43" stroke-miterlimit="10"/>
<path d="M25.8162 29.4232V0.257568" stroke="#3D4C43" stroke-miterlimit="10"/>
<path d="M27.0701 30.2882V0.257568" stroke="#3D4C43" stroke-miterlimit="10"/>
<path d="M28.3298 31.2151V0.257568" stroke="#3D4C43" stroke-miterlimit="10"/>
<path d="M29.5896 32.2089V0.257568" stroke="#3D4C43" stroke-miterlimit="10"/>
<path d="M30.8493 33.2748V0.257568" stroke="#3D4C43" stroke-miterlimit="10"/>
<path d="M32.1091 34.418V0.257568" stroke="#3D4C43" stroke-miterlimit="10"/>
<path d="M33.3688 35.6538V0.257568" stroke="#3D4C43" stroke-miterlimit="10"/>
<path d="M34.6227 36.9978V0.257568" stroke="#3D4C43" stroke-width="1.01" stroke-miterlimit="10"/>
<path d="M35.8825 36.5086V0.257568" stroke="#3D4C43" stroke-width="1.01" stroke-miterlimit="10"/>
<path d="M37.1422 34.2377V0.257568" stroke="#3D4C43" stroke-width="1.01" stroke-miterlimit="10"/>
<path d="M38.402 32.1677V30.9525V0.257568" stroke="#3D4C43" stroke-width="0.99" stroke-miterlimit="10"/>
<path d="M39.6617 30.3912V29.4232V0.257568" stroke="#3D4C43" stroke-width="0.99" stroke-miterlimit="10"/>
<path d="M40.9215 29.212V28.4139V0.257568" stroke="#3D4C43" stroke-miterlimit="10"/>
<path d="M42.1812 28.0998V27.3995V0.257568" stroke="#3D4C43" stroke-width="0.99" stroke-miterlimit="10"/>
<path d="M43.4351 0.257568V26.9978V27.6466" stroke="#3D4C43" stroke-width="0.99" stroke-miterlimit="10"/>
<path d="M44.6949 0.257568V26.7404V27.3686" stroke="#3D4C43" stroke-miterlimit="10"/>
<path d="M45.9546 27.0854V26.4778V0.257568" stroke="#3D4C43" stroke-miterlimit="10"/>
<path d="M47.2144 26.9258V26.3284V0.257568" stroke="#3D4C43" stroke-miterlimit="10"/>
<path d="M48.4741 0.623047V26.3283V26.9256" stroke="#3D4C43" stroke-miterlimit="10"/>
<path d="M49.7339 1.26685V26.3336V26.9258" stroke="#3D4C43" stroke-miterlimit="10"/>
<path d="M50.9878 2.45117V26.4881V27.0854" stroke="#3D4C43" stroke-miterlimit="10"/>
<path d="M2.21484 52.6001C1.76367 52.0852 1.30075 51.6166 0.826149 51.1377" stroke="#976945" stroke-width="1.22" stroke-miterlimit="10"/>
<path d="M3.6738 51.0141C2.73241 50.0426 1.75585 49.1072 0.744144 48.2078" stroke="#976945" stroke-width="1.22" stroke-miterlimit="10"/>
<path d="M0.832012 45.6279C2.4251 46.8786 3.9225 48.2203 5.31441 49.6444" stroke="#976945" stroke-width="1.22" stroke-miterlimit="10"/>
<path d="M7.16593 48.4858C5.18994 46.5045 3.01949 44.6798 0.679665 43.0327" stroke="#976945" stroke-width="1.22" stroke-miterlimit="10"/>
<path d="M9.24016 47.5641C6.72732 44.9928 3.87302 42.6953 0.738281 40.7207" stroke="#976945" stroke-width="1.22" stroke-miterlimit="10"/>
<path d="M0.63868 38.4548C4.52327 40.669 8.04088 43.3445 11.0917 46.4053C11.2557 46.5753 11.4198 46.74 11.578 46.9203" stroke="#976945" stroke-width="1.22" stroke-miterlimit="10"/>
<path d="M0.63868 36.354C5.55652 38.9001 9.95342 42.1533 13.6463 45.978C13.828 46.1583 13.9979 46.3436 14.162 46.5239" stroke="#976945" stroke-width="1.22" stroke-miterlimit="10"/>
<path d="M0.63868 34.3354L0.820317 34.423C6.80661 37.2609 12.0955 41.1108 16.3827 45.7514C16.5584 45.9419 16.7284 46.1376 16.8924 46.3281" stroke="#976945" stroke-width="1.22" stroke-miterlimit="10"/>
<path d="M0.63868 32.4148C1.37109 32.7392 2.09764 33.0739 2.82419 33.4447C9.17374 36.4444 14.729 40.5912 19.1248 45.6124C19.2947 45.803 19.4529 45.9935 19.6111 46.184" stroke="#976945" stroke-width="1.22" stroke-miterlimit="10"/>
<path d="M0.63868 30.5662C2.04492 31.1326 3.44332 31.7539 4.83394 32.4302C11.507 35.5759 17.2948 39.9938 21.7732 45.3601C21.9255 45.5403 22.0779 45.7257 22.2185 45.911" stroke="#976945" stroke-width="1.22" stroke-miterlimit="10"/>
<path d="M0.63868 28.7949C2.75756 29.577 4.82692 30.4588 6.83781 31.4365C14.8709 35.3397 20.4139 40.0976 24.2341 44.9276C24.3747 45.1079 24.5154 45.2829 24.6443 45.4426" stroke="#976945" stroke-width="1.22" stroke-miterlimit="10"/>
<path d="M0.63868 27.0801C3.45608 28.0353 6.19669 29.157 8.84173 30.4374C17.0448 34.4281 22.6521 39.3097 26.4783 44.2478L26.865 44.7628" stroke="#976945" stroke-width="1.22" stroke-miterlimit="10"/>
<path d="M0.63868 25.4324C4.15869 26.5209 7.57058 27.8625 10.8397 29.4437C19.0838 33.4498 24.7029 38.3571 28.5349 43.3159C28.6638 43.4806 28.7927 43.6506 28.9099 43.8308" stroke="#976945" stroke-width="1.22" stroke-miterlimit="10"/>
<path d="M0.63868 23.8362C4.87182 25.0239 8.9649 26.5672 12.8612 28.4448C21.0057 32.4098 26.5955 37.2501 30.4392 42.1522L30.82 42.6671" stroke="#976945" stroke-width="1.22" stroke-miterlimit="10"/>
<path d="M0.63868 22.2964C5.58004 23.5524 10.3505 25.2791 14.8651 27.4457C22.7986 31.3025 28.3005 35.9884 32.1208 40.7566L32.5133 41.2715" stroke="#976945" stroke-width="1.22" stroke-miterlimit="10"/>
<path d="M0.63868 20.8032C6.29205 22.1058 11.7441 24.0078 16.8748 26.4674C23.4524 29.5738 29.1732 33.9122 33.6325 39.1759L34.0485 39.6908" stroke="#976945" stroke-width="1.22" stroke-miterlimit="10"/>
<path d="M0.63868 19.3562C7.0011 20.6761 13.135 22.7351 18.8787 25.4787C25.1185 28.4278 30.5934 32.4835 34.9567 37.389C35.109 37.5641 35.2614 37.734 35.402 37.904" stroke="#976945" stroke-width="1.22" stroke-miterlimit="10"/>
<path d="M51.855 26.7814V27.389C51.5561 27.3272 51.269 27.2757 50.9643 27.2345C50.5366 27.1676 50.1206 27.1212 49.7105 27.0852C49.3003 27.0491 48.8609 27.0337 48.4507 27.0285C48.0405 27.0234 47.6069 27.0285 47.1909 27.0697C46.7682 27.1042 46.3478 27.1574 45.9312 27.2294C45.5048 27.3001 45.0841 27.3947 44.6714 27.5126L44.2437 27.6413C43.9507 27.734 43.6578 27.837 43.4117 27.9451C42.9752 28.1225 42.5558 28.3309 42.1578 28.5682C41.7079 28.8366 41.2863 29.1399 40.898 29.4744C40.4343 29.8837 40.0128 30.3283 39.6383 30.803C39.1714 31.406 38.7505 32.0356 38.3785 32.6876C38.0328 33.2746 37.6989 33.8925 37.359 34.5259L37.1188 34.9687C36.732 35.6845 36.3219 36.426 35.859 37.1675C35.7067 37.4147 35.5426 37.6824 35.3786 37.909C34.9636 38.5252 34.5118 39.1216 34.0251 39.6958C33.0957 40.7924 32.0152 41.7835 30.8083 42.6463C30.2125 43.0733 29.5841 43.4638 28.9274 43.8152C28.2739 44.1743 27.5903 44.4894 26.8826 44.7575C26.1582 45.037 25.4122 45.271 24.6502 45.4578C23.8528 45.652 23.0427 45.8034 22.2244 45.911C21.3513 46.0346 20.4666 46.1118 19.617 46.1684C18.949 46.2148 18.2869 46.2508 17.6307 46.2869L16.8983 46.3281C15.9784 46.3744 15.0702 46.4311 14.1678 46.5237C13.3023 46.6065 12.4433 46.7354 11.5956 46.9099C10.7959 47.0731 10.0122 47.2917 9.25185 47.5639C8.53326 47.8214 7.8396 48.1297 7.17766 48.4856C6.6022 48.7972 6.05026 49.1412 5.52533 49.5155L5.32614 49.6597C4.74276 50.0812 4.19446 50.539 3.6855 51.0294C3.16049 51.5296 2.67314 52.0594 2.22653 52.6154C1.7614 53.1982 1.33681 53.8052 0.955072 54.4331C0.71484 54.8141 0.492171 55.2106 0.281236 55.6226L0.0527496 56.0757V54.6545C0.123061 54.5257 0.199205 54.4022 0.281236 54.2786C0.363266 54.155 0.427722 54.0417 0.503893 53.9233C0.888876 53.3048 1.31744 52.708 1.78708 52.1365C2.23036 51.5927 2.71591 51.0766 3.24022 50.5917C3.74929 50.103 4.29756 49.6469 4.88082 49.2271C4.95699 49.1653 5.02731 49.1138 5.10348 49.0623C5.62326 48.6892 6.16925 48.3453 6.73822 48.0325C7.39789 47.6718 8.0896 47.3584 8.80657 47.0953C9.55735 46.8148 10.331 46.5842 11.121 46.4053C11.9595 46.2158 12.8108 46.073 13.6698 45.9779C14.5839 45.8698 15.4979 45.8028 16.4061 45.7514L17.578 45.6844C18.0877 45.6587 18.6033 45.6329 19.119 45.5969C19.9979 45.5454 20.8768 45.4733 21.7674 45.36C22.5973 45.262 23.4193 45.1175 24.2283 44.9275C24.9975 44.7534 25.7498 44.5262 26.4783 44.2478C27.1902 43.9844 27.8778 43.6728 28.5349 43.3157C29.1836 42.9695 29.8043 42.5841 30.3923 42.1623C30.9886 41.7279 31.5559 41.2637 32.0915 40.772C32.6353 40.2683 33.1403 39.7333 33.6032 39.1706C33.9664 38.7432 34.2946 38.3055 34.5934 37.8729C34.7106 37.7082 34.8219 37.5365 34.9274 37.358C35.2614 36.8431 35.5661 36.3282 35.8532 35.8441C36.1403 35.3601 36.4391 34.7628 36.7379 34.2375C36.861 34.0058 36.9899 33.7741 37.1129 33.5475C37.5114 32.8163 37.9215 32.1006 38.3727 31.4209C38.7457 30.8565 39.1668 30.3177 39.6324 29.8092C40.0127 29.3943 40.4343 29.01 40.8922 28.6609C41.2865 28.3603 41.7078 28.0882 42.1519 27.8473C42.5529 27.6292 42.9721 27.4381 43.4058 27.2757C43.5992 27.1985 43.7926 27.1315 43.9918 27.0646C44.191 26.9976 44.4312 26.9307 44.6597 26.8689C45.0735 26.7602 45.4942 26.6725 45.9195 26.6063C46.3358 26.5353 46.7564 26.4854 47.1792 26.457C47.5894 26.4261 48.0112 26.4158 48.439 26.4158C48.8667 26.4158 49.271 26.4158 49.6987 26.4776C50.1265 26.5394 50.5308 26.5548 50.9526 26.6217C51.269 26.6732 51.5796 26.7247 51.855 26.7814Z" fill="#5D8284"/>
<path d="M51.855 27.8473V28.4549C51.5561 28.4085 51.269 28.3725 50.9643 28.3416C50.5425 28.2953 50.1206 28.2644 49.7105 28.2541C49.3003 28.2438 48.8609 28.2541 48.4507 28.2541C48.0284 28.274 47.6078 28.3153 47.1909 28.3777C46.7655 28.4345 46.3448 28.5154 45.9312 28.6197C45.6558 28.6866 45.3921 28.7638 45.1285 28.8462C44.9703 28.8977 44.8179 28.9492 44.6714 29.0059C44.2355 29.1638 43.8143 29.3515 43.4117 29.5671C42.9671 29.8052 42.5475 30.0774 42.1578 30.3807C41.6949 30.7384 41.2729 31.1351 40.898 31.5651C40.4278 32.105 40.0066 32.6766 39.6383 33.2746C39.1989 33.9698 38.7945 34.7061 38.3785 35.4785C38.3375 35.5558 38.2907 35.633 38.2496 35.7154C37.8922 36.3745 37.5231 37.0542 37.1188 37.7442C36.8668 38.1716 36.6032 38.599 36.3219 39.0264C35.9012 39.6557 35.4416 40.2642 34.945 40.8492C34.4661 41.4144 33.9475 41.9527 33.3922 42.461C32.8611 42.9468 32.2955 43.4025 31.6989 43.8255H31.6637C31.0665 44.2524 30.4383 44.6446 29.7829 44.9996C29.126 45.3551 28.4406 45.6683 27.7322 45.9367C27.0137 46.2145 26.2735 46.4468 25.5173 46.6319C24.7381 46.8323 23.9456 46.9906 23.1443 47.1056C22.283 47.2292 21.4275 47.3064 20.5779 47.3631C19.8865 47.4094 19.1951 47.4455 18.5096 47.4815L17.9237 47.5124C17.0155 47.5588 16.1307 47.6154 15.246 47.7029C14.389 47.7813 13.5379 47.9033 12.6971 48.0685C11.8982 48.2209 11.1145 48.4293 10.3534 48.6916C9.62821 48.9408 8.9268 49.2404 8.2558 49.5876C7.61702 49.9195 7.00606 50.2912 6.42766 50.6998L6.38081 50.7307C5.78932 51.1515 5.23136 51.6074 4.71088 52.0953C4.17453 52.5974 3.67732 53.1307 3.22263 53.6916C2.74042 54.2795 2.30389 54.8954 1.91601 55.535C1.48934 56.2181 1.10975 56.9231 0.779301 57.6462C0.603521 58.0067 0.44531 58.3774 0.292967 58.7585L0.0644455 59.3609V57.5947L0.292967 57.1107V57.0489C0.640743 56.3441 1.03194 55.6566 1.46483 54.9892C1.86452 54.3667 2.3047 53.7649 2.78318 53.1869C3.2433 52.6364 3.74232 52.1119 4.2773 51.6164C4.79813 51.132 5.35609 50.6796 5.94722 50.2621L5.99994 50.2261C6.57481 49.8182 7.18181 49.4465 7.81635 49.1138C8.48182 48.7647 9.17728 48.4617 9.8964 48.2076C10.6566 47.9338 11.4403 47.7134 12.2401 47.5485C13.076 47.3703 13.9231 47.2361 14.7772 47.1468C15.6795 47.0438 16.5701 46.9872 17.4608 46.9357L18.4979 46.8791L20.1619 46.7864C21.0232 46.7297 21.9197 46.6576 22.7576 46.5444C23.5735 46.4461 24.3817 46.3033 25.1775 46.117C25.9415 45.939 26.6897 45.7118 27.4157 45.4373C28.1247 45.1717 28.8102 44.8602 29.4665 44.5052C30.1114 44.1589 30.7282 43.7734 31.3122 43.3518L31.3474 43.326C31.9515 42.894 32.523 42.4279 33.0583 41.9306C33.6064 41.4169 34.1172 40.8735 34.5876 40.3034C35.0633 39.7238 35.5034 39.1222 35.9059 38.5012V38.4651C36.3629 37.7648 36.7614 37.0697 37.1422 36.4054L37.6578 35.4579C37.9039 34.9996 38.15 34.5465 38.402 34.1037C38.7798 33.4212 39.2004 32.7576 39.6617 32.116C40.0323 31.5972 40.4538 31.1079 40.9215 30.6536C41.306 30.2784 41.7276 29.9337 42.1812 29.6238C42.5781 29.3547 42.9972 29.112 43.4351 28.8977C43.8403 28.6996 44.2614 28.5275 44.6949 28.3828L44.9175 28.3056C45.2575 28.1957 45.6037 28.1011 45.9546 28.0224C46.3691 27.9239 46.7898 27.8465 47.2144 27.7906C47.6319 27.7343 48.0523 27.6965 48.4741 27.6773C48.8937 27.6567 49.3143 27.6567 49.7339 27.6773C50.144 27.6773 50.5601 27.7134 50.9878 27.7597C51.269 27.7649 51.5796 27.8009 51.855 27.8473Z" fill="#5D8284"/>
<path d="M51.855 28.9494V29.557C51.5561 29.5261 51.269 29.5004 50.9643 29.4849C50.5366 29.4849 50.1206 29.4592 49.7105 29.4849C49.2891 29.4956 48.8687 29.5248 48.4507 29.5725C48.0266 29.6198 47.606 29.6886 47.1909 29.7784C46.7934 29.862 46.402 29.9669 46.0191 30.0925L45.9312 30.1234C45.4967 30.266 45.0755 30.4382 44.6714 30.6384C44.2265 30.8471 43.8048 31.0919 43.4117 31.3696C42.9575 31.6771 42.5376 32.0219 42.1578 32.3994C41.6886 32.8819 41.2671 33.3987 40.898 33.9442C40.4469 34.593 40.0426 35.2933 39.6383 36.0039L39.1402 36.9205C38.8941 37.3736 38.6422 37.8371 38.3785 38.3108C37.0521 40.9056 35.0821 43.2068 32.6129 45.0461C28.1247 48.2541 23.6892 48.4807 19.4002 48.7072C15.2225 48.9235 11.2733 49.1295 7.29486 51.9255C3.90817 54.2994 1.55859 57.9193 0.263678 62.703C0.181648 63.0017 0.105468 63.3003 0.0351562 63.6041V61.1067L0.263678 60.4476C1.67577 56.5651 3.87888 53.5527 6.86128 51.4518C11.0155 48.5425 15.2518 48.321 19.3592 48.1099C23.4666 47.8988 27.861 47.6671 32.1735 44.5827C35.4664 42.2294 37.0426 39.4334 38.3961 36.9359C38.4489 36.8484 38.4957 36.7557 38.5426 36.6682C38.9117 35.9936 39.2691 35.3242 39.6559 34.6806C40.0262 34.0442 40.4472 33.4317 40.9156 32.8474C41.2912 32.3719 41.7126 31.9257 42.1754 31.5137C42.5611 31.1726 42.9807 30.8624 43.4293 30.5869C43.8289 30.337 44.2501 30.1149 44.689 29.9226C45.0513 29.7646 45.4229 29.6236 45.8023 29.5004L45.9488 29.454C46.3613 29.3249 46.7819 29.2166 47.2085 29.1296C47.6239 29.0449 48.0445 28.9813 48.4683 28.9391C48.8862 28.8914 49.3067 28.8622 49.728 28.8516C50.1382 28.8516 50.5601 28.8516 50.9819 28.8516C51.269 28.8979 51.5796 28.9185 51.855 28.9494Z" fill="#5D8284"/>
<path d="M51.855 30.113C50.0975 30.0036 48.3334 30.2176 46.6753 30.7413C42.5738 32.0698 41.0387 34.907 39.4156 37.9142C38.027 40.4889 36.486 43.3879 33.0466 45.8235C28.7283 48.9131 24.4099 49.1345 20.2264 49.3508C16.0428 49.5671 11.8827 49.7885 7.73431 52.6978C4.03708 55.2725 1.54101 59.2889 0.269543 64.6081C0.316275 65.0913 0.446667 65.5653 0.656242 66.0139C1.78123 60.1901 4.29488 55.8801 8.16203 53.1664C12.1405 50.3755 16.0897 50.1695 20.2674 49.9481C24.5564 49.7267 28.9919 49.495 33.4802 46.2921C36.9957 43.769 38.6129 40.7978 40.0309 38.1717C41.6598 35.1542 43.066 32.5487 46.9097 31.3077C48.493 30.8089 50.1776 30.6072 51.855 30.7155V30.113Z" fill="#5D8284"/>
<path d="M51.855 31.3025V31.8998C50.473 31.894 49.1007 32.1014 47.8003 32.5125C43.9566 33.7535 42.5269 36.3591 40.9215 39.3817C39.5035 42.0027 37.8981 44.979 34.3649 47.497C29.8825 50.705 25.447 50.9367 21.158 51.1581C16.9803 51.3744 13.0311 51.5804 9.05265 54.3764C5.17378 57.1004 2.66013 61.4361 1.541 67.2857C1.33378 67.068 1.14758 66.8355 0.98436 66.5906C2.19138 60.8851 4.74604 56.6267 8.60147 53.9078C12.7499 50.9933 16.992 50.7719 21.0935 50.5608C25.1951 50.3497 29.5954 50.118 33.9137 47.0335C37.3239 44.5979 38.8941 41.6886 40.2828 39.1242C41.9 36.117 43.4351 33.2746 47.5425 31.9513C48.9244 31.5103 50.3849 31.2906 51.855 31.3025Z" fill="#5D8284"/>
<path d="M51.855 32.5486V33.151C50.7739 33.2103 49.7083 33.4063 48.6909 33.7329C44.8472 34.9739 43.4175 37.5794 41.8121 40.5969C40.3941 43.2231 38.7887 46.1942 35.2555 48.7174C30.7673 51.9202 26.3376 52.1519 22.0486 52.3785C17.8709 52.5948 13.9217 52.8007 9.94324 55.5917C6.15812 58.2487 3.66793 62.4454 2.5195 68.0838C2.31003 67.9494 2.114 67.7996 1.93357 67.6358C3.14645 62.0231 5.69525 57.8213 9.55068 55.1231C13.6991 52.2137 17.9412 51.9923 22.0427 51.776C26.1443 51.5598 30.5446 51.3332 34.8629 48.2539C38.2731 45.8183 39.8434 42.9089 41.2262 40.3394C42.8492 37.3323 44.3843 34.495 48.4917 33.1716C49.573 32.8234 50.7057 32.6136 51.855 32.5486Z" fill="#5D8284"/>
<path d="M51.855 33.8516C50.9997 33.9398 50.1584 34.1125 49.3472 34.3665C45.2456 35.695 43.7047 38.5323 42.0816 41.5395C40.6988 44.1141 39.152 47.0131 35.7184 49.4488C31.4001 52.5383 27.0759 52.7598 22.8982 52.976C18.7205 53.1923 14.5546 53.4137 10.4062 56.3231C6.69135 58.9338 4.18355 62.9554 2.92379 68.3055L3.55075 68.5938C4.76948 63.3004 7.2011 59.3251 10.8339 56.7917C14.8123 54.0007 18.7615 53.7948 22.9392 53.5733C27.2283 53.3519 31.6579 53.1202 36.1461 49.9173C39.6617 47.3942 41.2848 44.4179 42.6968 41.7969C44.3316 38.7794 45.7378 36.1687 49.5815 34.9278C50.3159 34.6843 51.0782 34.5117 51.855 34.4128V33.8516Z" fill="#5D8284"/>
<path d="M51.855 35.8134C51.3855 35.9045 50.9235 36.0232 50.4722 36.1687C46.6285 37.4096 45.1988 40.0152 43.5875 43.0327C42.1754 45.6588 40.5641 48.6351 37.0368 51.1531C32.5485 54.3611 28.1189 54.5928 23.8298 54.8142C19.6463 55.0305 15.703 55.2365 11.7186 58.0325C8.37297 60.3806 6.0468 63.9336 4.74603 68.6195H4.04877C5.37298 63.7277 7.79291 60.0202 11.2968 57.564C15.4452 54.6495 19.6873 54.428 23.7888 54.2169C27.8903 54.0058 32.3141 53.7998 36.6207 50.7103C40.0309 48.2746 41.6012 45.3653 42.9839 42.8009C44.607 39.7938 46.1421 36.9513 50.2437 35.628C50.7728 35.4583 51.3153 35.3223 51.8667 35.2212L51.855 35.8134Z" fill="#5D8284"/>
<path d="M51.855 36.6167V37.2449C51.685 37.2861 51.521 37.3376 51.3569 37.3891C47.5132 38.6301 46.0835 41.2356 44.4781 44.2531C43.0601 46.8792 41.4547 49.8504 37.9274 52.3735C33.4391 55.5764 29.0036 55.8081 24.7205 56.0347C20.5369 56.2509 16.5936 56.4569 12.6093 59.2478C9.56242 61.3899 7.33587 64.531 6.0058 68.6195H5.29681C6.67961 64.3302 8.98233 61.0295 12.1874 58.7793C16.3358 55.8699 20.5779 55.6485 24.6794 55.4322C28.781 55.2159 33.1813 54.9894 37.4938 51.9101C40.9332 49.4745 42.4801 46.5909 43.8863 44.0162C45.5093 41.009 47.0445 38.1718 51.146 36.8433C51.3862 36.7454 51.6323 36.6785 51.855 36.6167Z" fill="#5D8284"/>
<path d="M51.855 38.7484C48.3394 40.0357 46.939 42.5589 45.3687 45.4734C43.9507 48.0944 42.3453 51.0707 38.818 53.5938C34.3297 56.7967 29.8943 57.0284 25.6111 57.2498C21.4275 57.4712 17.4783 57.6772 13.4999 60.4681C10.7636 62.3888 8.70696 65.1025 7.33588 68.6195H6.61516C8.02725 64.9223 10.1835 62.0284 13.0604 59.9995C17.2088 57.085 21.451 56.8688 25.5525 56.6525C29.654 56.4362 34.0543 56.2097 38.3668 53.1252C41.7769 50.6896 43.3472 47.7803 44.7359 45.2159C46.3355 42.2499 47.853 39.4436 51.8374 38.0996L51.855 38.7484Z" fill="#5D8284"/>
<path d="M51.855 40.3396C48.9605 41.7042 47.6949 44.0368 46.2593 46.6887C44.8238 49.3406 43.2359 52.2911 39.7086 54.8091C35.2204 58.0171 30.7848 58.2437 26.4958 58.4703C22.3181 58.6865 18.369 58.8925 14.3905 61.6886C11.8565 63.53 9.91012 65.9183 8.74209 68.6195H8.00968C9.21573 65.7343 11.2697 63.1813 13.9628 61.22C18.1112 58.3055 22.3533 58.0841 26.4607 57.873C30.568 57.6618 34.9567 57.4301 39.275 54.3457C42.6851 51.9101 44.2554 49.0007 45.6441 46.4312C47.1148 43.697 48.521 41.1069 51.855 39.6599V40.3396Z" fill="#5D8284"/>
<path d="M51.855 42.0335C49.564 43.429 48.4273 45.5402 47.1675 47.9089C45.7496 50.535 44.1441 53.5062 40.6168 56.0293C36.1286 59.2322 31.6931 59.4639 27.404 59.6905C23.2263 59.9067 19.2771 60.1127 15.2987 62.9036C13.1486 64.4493 11.4256 66.4036 10.2597 68.6193H9.50966C10.7273 66.2221 12.5628 64.1066 14.871 62.4402C19.0194 59.5308 23.2615 59.3094 27.363 59.0932C31.4645 58.8769 35.8649 58.6503 40.1832 55.571C43.5933 53.1303 45.1636 50.2261 46.5523 47.6566C47.8882 45.1798 49.1714 42.8214 51.8726 41.3333L51.855 42.0335Z" fill="#5D8284"/>
<path d="M51.855 43.0945V43.8772C50.1382 45.2417 49.1362 47.0903 48.0405 49.1295C46.6226 51.7504 45.0171 54.7267 41.484 57.2447C37.0016 60.4528 32.5661 60.6845 28.2771 60.9059C24.0994 61.1273 20.1502 61.3281 16.1717 64.1242C14.4244 65.3688 12.9629 66.8944 11.8651 68.6195H11.08C12.2525 66.7081 13.8459 65.0207 15.7674 63.6556C19.9158 60.7411 24.158 60.5197 28.2595 60.3086C32.361 60.0975 36.7614 59.8657 41.0797 56.7813C44.4898 54.3457 46.0601 51.4363 47.4429 48.872C48.6265 46.6835 49.7632 44.5826 51.855 43.0945Z" fill="#5D8284"/>
<path d="M51.855 45.0459V45.9367C50.6659 47.2961 49.6812 48.7845 48.9253 50.3651C47.5073 52.9912 45.9019 55.9624 42.3687 58.4856C37.8805 61.6936 33.4509 61.9201 29.1618 62.1467C24.9841 62.363 21.0349 62.5689 17.0565 65.365C15.7335 66.301 14.5763 67.4047 13.6229 68.64H12.7968C13.8397 67.2197 15.1332 65.9543 16.6287 64.8913C20.7771 61.9819 25.0193 61.7605 29.1208 61.5494C33.2223 61.3382 37.6227 61.1065 41.941 58.0221C45.3511 55.5865 46.9214 52.6771 48.3042 50.1076C49.3413 48.2282 50.314 46.4414 51.855 45.0459Z" fill="#5D8284"/>
<path d="M51.855 48.1871C51.09 49.2717 50.4088 50.4002 49.8159 51.565C48.4038 54.1911 46.7984 57.1623 43.2652 59.6854C38.777 62.8883 34.3473 63.12 30.0583 63.3414C25.8806 63.5629 21.9314 63.7688 17.953 66.5597C17.0797 67.1743 16.2788 67.8643 15.5623 68.6195H14.6893C15.5225 67.6849 16.4739 66.8367 17.5252 66.0912C21.6736 63.1818 25.9158 62.9604 30.0173 62.7441C34.1188 62.5278 38.5191 62.3013 42.8375 59.2168C46.2476 56.7812 47.8179 53.8719 49.2007 51.3075C49.9175 49.8478 50.8072 48.4584 51.855 47.1624V48.1871Z" fill="#5D8284"/>
<path d="M51.855 49.531V50.7514C51.4565 51.395 51.0874 52.0799 50.6831 52.7854C49.2651 55.4064 47.6597 58.3826 44.1324 60.9006C39.6441 64.1087 35.2145 64.3404 30.9255 64.5618C26.7419 64.7781 22.7986 64.984 18.8143 67.7801C18.4393 68.0427 18.0819 68.3259 17.7303 68.6194H16.7576C17.2697 68.1528 17.8158 67.7159 18.3924 67.3115C22.5408 64.397 26.783 64.1756 30.8845 63.9645C34.986 63.7533 39.3864 63.5216 43.7047 60.4372C47.1148 58.0016 48.6851 55.0922 50.0679 52.5279C50.6033 51.5021 51.1998 50.5017 51.855 49.531Z" fill="#5D8284"/>
<path d="M51.855 53.5322C51.7671 53.6866 51.685 53.8411 51.5972 54.0007C50.1792 56.6269 48.5738 59.598 45.0464 62.1212C40.5582 65.324 36.1227 65.5557 31.8396 65.7823C27.8552 65.9883 24.0877 66.1891 20.2967 68.6196H19.1834C19.2244 68.6196 19.2596 68.5578 19.3065 68.5269C23.4549 65.6175 27.697 65.3961 31.7985 65.1798C35.9001 64.9636 40.3004 64.737 44.6129 61.6577C48.023 59.2221 49.5933 56.3128 50.9819 53.7433C51.269 53.2283 51.5679 52.7134 51.855 52.1985V53.5322Z" fill="#5D8284"/>
<path d="M51.855 56.3744C50.5659 58.6865 48.9546 61.1736 45.9371 63.3311C41.4488 66.534 37.0133 66.7657 32.7301 66.9871C29.5485 67.1571 26.5076 67.3167 23.4783 68.6092H22.0545C25.6052 66.7657 29.197 66.5495 32.6891 66.3898C36.8668 66.1736 41.191 65.947 45.5034 62.8626C48.9019 60.4372 50.4722 57.5433 51.855 54.9841V56.3744Z" fill="#5D8284"/>
<path d="M51.855 57.8267V59.114C50.6084 61.2044 48.8992 63.0549 46.8277 64.5568C42.3394 67.7648 37.9039 67.9965 33.6149 68.2179C32.0121 68.2755 30.4141 68.4096 28.8279 68.6196H25.9978C28.5407 67.8832 31.0837 67.7493 33.5739 67.6206C37.7574 67.3992 42.0758 67.1778 46.3941 64.0933C48.7139 62.3805 50.578 60.2413 51.855 57.8267Z" fill="#5D8284"/>
<path d="M51.855 60.4939V61.6525C50.7421 63.217 49.3424 64.609 47.7124 65.7719C45.8817 67.0987 43.7505 68.0677 41.4605 68.6143H37.6871C40.8512 68.3157 44.0679 67.5845 47.2847 65.3085C49.1366 63.9683 50.6867 62.3353 51.855 60.4939Z" fill="#5D8284"/>
<path d="M51.855 62.9707V64.0006C50.9202 65.1168 49.8274 66.1239 48.6031 66.9975C47.74 67.6143 46.8119 68.1574 45.8316 68.6195H44.2554C45.6691 68.091 46.9892 67.3869 48.1753 66.5289C49.5958 65.5097 50.836 64.3105 51.855 62.9707Z" fill="#5D8284"/>
<path d="M51.6675 65.4888C51.4463 66.1803 51.0529 66.8199 50.5158 67.3614C49.9787 67.9028 49.3113 68.3326 48.562 68.6195H47.7534C48.2046 68.3569 48.6558 68.0737 49.1128 67.7493C50.0468 67.0714 50.9025 66.3142 51.6675 65.4888Z" fill="#5D8284"/>
</g>
<defs>
<clipPath id="clip0_1_34">
<rect width="52.1948" height="69.1395" fill="white"/>
</clipPath>
</defs>
</svg>
