<svg width="0" height="0" class="hidden">

  <symbol xmlns="http://www.w3.org/2000/svg" viewBox="0 0 30.065 30.065" id="play-button">
    <path d="M26.511 12.004L6.233.463C4.082-.765 1.889.578 1.889 2.993v24.093c0 2.046 1.332 2.979 2.57 2.979.583 0 1.177-.184 1.767-.543l20.369-12.468c1.024-.629 1.599-1.56 1.581-2.555-.017-.996-.623-1.906-1.665-2.495zm-1.281 2.823L4.862 27.292a1.297 1.297 0 01-.319.147 1.354 1.354 0 01-.04-.353V2.994c0-.248.045-.373.045-.404.08.005.22.046.396.146l20.275 11.541c.25.143.324.267.348.24-.013.034-.098.161-.337.31z"></path>
  </symbol>
  <symbol xmlns="http://www.w3.org/2000/svg" viewBox="0 0 24 24" id="facebook">
    <path d="M15.997 3.985h2.191V.169C17.81.117 16.51 0 14.996 0c-3.159 0-5.323 1.987-5.323 5.639V9H6.187v4.266h3.486V24h4.274V13.267h3.345l.531-4.266h-3.877V6.062c.001-1.233.333-2.077 2.051-2.077z"></path>
  </symbol>
  <symbol xmlns="http://www.w3.org/2000/svg" viewBox="0 0 512.001 512.001" id="instagram">
    <path xmlns="http://www.w3.org/2000/svg" d="M373.406 0H138.594C62.172 0 0 62.172 0 138.594V373.41C0 449.828 62.172 512 138.594 512H373.41C449.828 512 512 449.828 512 373.41V138.594C512 62.172 449.828 0 373.406 0zM256 395.996c-77.195 0-139.996-62.8-139.996-139.996S178.804 116.004 256 116.004 395.996 178.804 395.996 256 333.196 395.996 256 395.996zM399.344 149.02c-22.813 0-41.367-18.555-41.367-41.368s18.554-41.37 41.367-41.37 41.37 18.558 41.37 41.37-18.558 41.368-41.37 41.368zm0 0" fill="#fff" data-original="#000000"></path>
    <path xmlns="http://www.w3.org/2000/svg" d="M256 146.02c-60.64 0-109.98 49.335-109.98 109.98 0 60.64 49.34 109.98 109.98 109.98 60.645 0 109.98-49.34 109.98-109.98 0-60.645-49.335-109.98-109.98-109.98zM399.344 96.3c-6.258 0-11.352 5.095-11.352 11.352 0 6.258 5.094 11.352 11.352 11.352 6.261 0 11.355-5.09 11.355-11.352 0-6.261-5.094-11.351-11.355-11.351zm0 0" fill="#fff" data-original="#000000"></path>
  </symbol>

  <symbol xmlns="http://www.w3.org/2000/svg" viewBox="0 0 682.667 682" id="youtube">
    <path xmlns="http://www.w3.org/2000/svg" d="M626.813 64.035c-7.375-27.418-28.993-49.031-56.407-56.414C520.324-6.082 319.992-6.082 319.992-6.082s-200.324 0-250.406 13.184c-26.887 7.375-49.031 29.52-56.406 56.933C0 114.113 0 217.97 0 217.97s0 104.379 13.18 153.933c7.382 27.414 28.992 49.028 56.41 56.41C120.195 442.02 320 442.02 320 442.02s200.324 0 250.406-13.184c27.418-7.379 49.032-28.992 56.414-56.406 13.176-50.082 13.176-153.934 13.176-153.934s.527-104.383-13.183-154.46zM256.21 313.915V122.022l166.586 95.946zm0 0" fill="#fff" data-original="#000000"></path>
  </symbol>

  <symbol xmlns="http://www.w3.org/2000/svg" viewBox="0 0 512 512" id="whatsapp">
    <path xmlns="http://www.w3.org/2000/svg" d="M256.064 0h-.128C114.784 0 0 114.816 0 256c0 56 18.048 107.904 48.736 150.048l-31.904 95.104 98.4-31.456C155.712 496.512 204 512 256.064 512 397.216 512 512 397.152 512 256S397.216 0 256.064 0z" fill="#fff"></path>
    <path fill="#000" xmlns="http://www.w3.org/2000/svg" d="M405.024 361.504c-6.176 17.44-30.688 31.904-50.24 36.128-13.376 2.848-30.848 5.12-89.664-19.264-75.232-31.168-123.68-107.616-127.456-112.576-3.616-4.96-30.4-40.48-30.4-77.216s18.656-54.624 26.176-62.304c6.176-6.304 16.384-9.184 26.176-9.184 3.168 0 6.016.16 8.576.288 7.52.32 11.296.768 16.256 12.64 6.176 14.88 21.216 51.616 23.008 55.392 1.824 3.776 3.648 8.896 1.088 13.856-2.4 5.12-4.512 7.392-8.288 11.744-3.776 4.352-7.36 7.68-11.136 12.352-3.456 4.064-7.36 8.416-3.008 15.936 4.352 7.36 19.392 31.904 41.536 51.616 28.576 25.44 51.744 33.568 60.032 37.024 6.176 2.56 13.536 1.952 18.048-2.848 5.728-6.176 12.8-16.416 20-26.496 5.12-7.232 11.584-8.128 18.368-5.568 6.912 2.4 43.488 20.48 51.008 24.224 7.52 3.776 12.48 5.568 14.304 8.736 1.792 3.168 1.792 18.048-4.384 35.52z"></path>
  </symbol>

  <symbol xmlns="http://www.w3.org/2000/svg" viewBox="0 0 25 24" id="cart">
    <path fill-rule="evenodd" clip-rule="evenodd"
          d="M22.99 4.682c0-.376-.333-.682-.744-.682H9.264c-.411 0-.744.306-.744.682v1.366c0 .376.333.682.744.682h12.982c.41 0 .744-.306.744-.682V4.682zm0 6.629c0-.376-.333-.682-.744-.682H9.264c-.411 0-.744.306-.744.682v1.366c0 .376.333.682.744.682h12.982c.41 0 .744-.306.744-.682V11.31zm0 6.641c0-.377-.333-.683-.744-.683H9.264c-.411 0-.744.306-.744.683v1.365c0 .377.333.683.744.683h12.982c.41 0 .744-.306.744-.683v-1.365zM6.16 4.682A.688.688 0 005.467 4H3.683a.688.688 0 00-.693.682v1.366c0 .376.31.682.693.682h1.784a.688.688 0 00.693-.682V4.682zm0 6.629a.688.688 0 00-.693-.682H3.683a.688.688 0 00-.693.682v1.366c0 .376.31.682.693.682h1.784a.688.688 0 00.693-.682V11.31zm0 6.641a.688.688 0 00-.693-.683H3.683a.688.688 0 00-.693.683v1.365c0 .377.31.683.693.683h1.784a.688.688 0 00.693-.683v-1.365z"></path>
  </symbol>
  <symbol xmlns="http://www.w3.org/2000/svg" viewBox="0 0 24 24" id="chevron-down">
    <path d="M18.878 6.44L12 13.316 5.123 6.439 3 8.562l9 9 9-9-2.122-2.123z"></path>
  </symbol>


  <symbol xmlns="http://www.w3.org/2000/svg" viewBox="0 0 24 24" id="close">
    <path d="M19.072 20.504l1.424-1.426-7.06-7.061 7.072-7.07-1.425-1.425-7.071 7.07-7.072-7.07-1.424 1.425 7.071 7.07-7.06 7.06 1.424 1.426 7.06-7.06 7.06 7.06z"></path>
  </symbol>

  <symbol xmlns="http://www.w3.org/2000/svg" viewBox="0 0 25 24" id="filter">
    <path
      d="M22.18 11.245H10.71a2.829 2.829 0 00-5.482 0H3.706a.71.71 0 100 1.42h1.522a2.829 2.829 0 005.482 0h11.47a.71.71 0 100-1.42zm0-7.113h-2.233a2.829 2.829 0 00-5.483 0H3.706a.71.71 0 100 1.42h10.758a2.829 2.829 0 005.483 0h2.232a.71.71 0 100-1.42zm0 14.218h-3.654a2.829 2.829 0 00-5.483 0H3.706a.71.71 0 000 1.421h9.337a2.829 2.829 0 005.483 0h3.653a.71.71 0 000-1.42z"></path>
  </symbol>


  <symbol xmlns="http://www.w3.org/2000/svg" viewBox="0 0 24 24" id="search">
    <path d="M15.857 14.314l-.763-.755a6.386 6.386 0 001.278-3.873A6.673 6.673 0 009.686 3 6.672 6.672 0 003 9.686a6.672 6.672 0 006.686 6.685c1.645 0 3.017-.621 3.874-1.277l.754.763L19.457 21 21 19.457l-5.143-5.143zm-6.171 0a4.61 4.61 0 01-4.629-4.628 4.61 4.61 0 014.629-4.629 4.61 4.61 0 014.628 4.629 4.61 4.61 0 01-4.628 4.628z" ></path>
  </symbol>


  <symbol xmlns="http://www.w3.org/2000/svg" viewBox="0 0 24 24" id="chevron-right">
    <path d="M6.438 5.123L8.561 3l9 9-9 9-2.123-2.122L13.316 12 6.438 5.123z"></path>
  </symbol>
  <symbol xmlns="http://www.w3.org/2000/svg" viewBox="0 0 28 9" id="arrow-right">
    <path d="M27.3958 4.85355C27.5911 4.65829 27.5911 4.34171 27.3958 4.14645L24.2138 0.964466C24.0186 0.769204 23.702 0.769204 23.5067 0.964466C23.3115 1.15973 23.3115 1.47631 23.5067 1.67157L26.3351 4.5L23.5067 7.32843C23.3115 7.52369 23.3115 7.84027 23.5067 8.03553C23.702 8.2308 24.0186 8.2308 24.2138 8.03553L27.3958 4.85355ZM0 5H27.0423V4H0L0 5Z"></path>
  </symbol>





  <symbol xmlns="http://www.w3.org/2000/svg" viewBox="0 0 24 24" id="arrow-left">
    <path d="M21 10.875H7.309l6.283-6.283L12 3l-9 9 9 9 1.592-1.592-6.283-6.283H21v-2.25z" ></path>
  </symbol>


  <symbol xmlns="http://www.w3.org/2000/svg" viewBox="0 0 24 24" id="plus">
    <path fill-rule="evenodd" clip-rule="evenodd" d="M13 6h-2v5H6v2h5v5h2v-5h5v-2h-5V6z"></path>
  </symbol>
  <symbol xmlns="http://www.w3.org/2000/svg" viewBox="0 0 24 24" id="minus">
    <path d="M6 11h12v2H6z"></path>
  </symbol>
  <symbol xmlns="http://www.w3.org/2000/svg" viewBox="0 0 24 24" id="arrow-down">
    <path d="M19.414 10.414l-6.289 6.277V3h-2.25v13.691l-6.278-6.288L3 12l9 9 9-9-1.586-1.586z"></path>
  </symbol>
  <symbol xmlns="http://www.w3.org/2000/svg" viewBox="0 0 24 24" id="mail">
    <path d="M2 4v15.014h20V4H2zm16 2l-5.97 5.266L6 6h12zm2 11H4V7l8 7 8-7v10z"></path>
  </symbol>




  <symbol xmlns="http://www.w3.org/2000/svg" viewBox="0 0 24 24" id="phone-icon">
    <path d="M15.75 14.766L13.2 17.3c-2.8-1.4-5.1-3.8-6.6-6.6l2.494-2.497L8.438 3H3.046S3 3.493 3 4c0 9.4 7.6 17 17 17 .6 0 1-.07 1-.07v-5.274l-5.25-.89z"></path>
  </symbol>

  <symbol xmlns="http://www.w3.org/2000/svg" viewBox="0 0 18 18" id="map">
    <path d="M17.5 0L17.34 0.03L12 2.1L6 0L0.36 1.9C0.15 1.97 0 2.15 0 2.38V17.5C0 17.78 0.22 18 0.5 18L0.66 17.97L6 15.9L12 18L17.64 16.1C17.85 16.03 18 15.85 18 15.62V0.5C18 0.22 17.78 0 17.5 0ZM7 2.47L11 3.87V15.53L7 14.13V2.47ZM2 3.46L5 2.45V14.15L2 15.31V3.46ZM16 14.54L13 15.55V3.86L16 2.7V14.54Z"></path>
  </symbol>

  <symbol xmlns="http://www.w3.org/2000/svg" viewBox="0 0 24 24" id="Ñhevron-left">
    <path d="M17.122 5.123L15 3l-9 9 9 9 2.122-2.122L10.245 12l6.877-6.877z"></path>
  </symbol>


  <symbol xmlns="http://www.w3.org/2000/svg" viewBox="0 0 24 24" id="filter_new">
    <path d="M19 3.5h-4V5H2v1h13v1.5h4V6h3V5h-3V3.5zM2 12h3v-1.5h4V12h13v1H9v1.5H5V13H2v-1zm15 7h5v1h-5v1.5h-4V20H2v-1h11v-1.5h4V19z"></path>
  </symbol>

  <symbol xmlns="http://www.w3.org/2000/svg" viewBox="0 0 24 24" id="cart_new">
    <path d="M6.319 19.2c0-.99.81-1.8 1.8-1.8s1.8.81 1.8 1.8-.81 1.8-1.8 1.8-1.8-.81-1.8-1.8z"></path>
    <path fill-rule="evenodd" clip-rule="evenodd"
          d="M2.719 4.8V3h2.97l.545 1.8h15.047l-4.5 8.09-8.662.01.36 1.8h10.44v1.8H7.03A423.005 423.005 0 004.52 4.8h-1.8zm4.078 1.763l1.031 4.593h7.875l2.578-4.594H6.797z"></path>
    <path d="M15.319 19.2c0-.99.81-1.8 1.8-1.8s1.8.81 1.8 1.8-.81 1.8-1.8 1.8-1.8-.81-1.8-1.8z"></path>
  </symbol>
  <symbol xmlns="http://www.w3.org/2000/svg" viewBox="0 0 24 24" id="search_new">
    <path d="M15.429 14.057l-.679-.671a5.676 5.676 0 001.136-3.443A5.931 5.931 0 009.943 4 5.931 5.931 0 004 9.943a5.931 5.931 0 005.943 5.943c1.463 0 2.682-.553 3.444-1.136l.67.678L18.63 20 20 18.629l-4.571-4.572zm-5.486 0a4.097 4.097 0 01-4.114-4.114 4.097 4.097 0 014.114-4.114 4.097 4.097 0 014.114 4.114 4.097 4.097 0 01-4.114 4.114z"></path>

  </symbol>
</svg>
